<?xml version="1.0" encoding="UTF-8" standalone="no"?>
<!-- Created with Inkscape (http://www.inkscape.org/) -->

<svg
   version="1.1"
   id="svg22133"
   xml:space="preserve"
   width="800"
   height="800"
   viewBox="0 0 800 800"
   sodipodi:docname="blue-background-3-pdv.svg"
   inkscape:version="1.1.2 (b8e25be833, 2022-02-05)"
   xmlns:inkscape="http://www.inkscape.org/namespaces/inkscape"
   xmlns:sodipodi="http://sodipodi.sourceforge.net/DTD/sodipodi-0.dtd"
   xmlns="http://www.w3.org/2000/svg"
   xmlns:svg="http://www.w3.org/2000/svg"><defs
     id="defs22137"><clipPath
       clipPathUnits="userSpaceOnUse"
       id="clipPath22147"><path
         d="M 0,600 H 600 V 0 H 0 Z"
         id="path22145" /></clipPath></defs><sodipodi:namedview
     id="namedview22135"
     pagecolor="#ffffff"
     bordercolor="#666666"
     borderopacity="1.0"
     inkscape:pageshadow="2"
     inkscape:pageopacity="0.0"
     inkscape:pagecheckerboard="0"
     showgrid="false"
     inkscape:zoom="1.03875"
     inkscape:cx="400"
     inkscape:cy="400"
     inkscape:window-width="1920"
     inkscape:window-height="1018"
     inkscape:window-x="-8"
     inkscape:window-y="-8"
     inkscape:window-maximized="1"
     inkscape:current-layer="g22139" /><g
     id="g22139"
     inkscape:groupmode="layer"
     inkscape:label="blue-background-3-pdv"
     transform="matrix(1.3333333,0,0,-1.3333333,0,800)"><g
       id="g22141"><g
         id="g22143"
         clip-path="url(#clipPath22147)"><path
           d="M -2.796,0 H 599.211 V 602.006 H -2.796 Z"
           style="fill:#12375c;fill-opacity:1;fill-rule:evenodd;stroke:none"
           id="path22149" /><path
           d="M -2.796,602.006 H 437.95 l 67.201,-38.798 V 395.095 226.98 L 359.562,142.925 213.97,58.867 68.379,142.925 -2.796,184.018 Z"
           style="fill:#163c63;fill-opacity:1;fill-rule:evenodd;stroke:none"
           id="path22151" /><path
           d="m 95.432,478.641 42.341,-24.445 42.34,-24.446 v -48.892 -48.89 L 137.773,307.523 95.432,283.078 53.091,307.523 10.75,331.968 v 48.89 48.892 l 42.341,24.446 z m 226.951,42.228 28.887,-16.678 28.886,-16.677 v -33.356 -33.354 l -28.886,-16.678 -28.887,-16.677 -28.886,16.677 -28.886,16.678 v 33.354 33.356 l 28.886,16.677 z m -74.626,-137.341 21.665,-12.507 21.664,-12.509 v -25.015 -25.018 l -21.664,-12.507 -21.665,-12.509 -21.664,12.509 -21.666,12.507 v 25.018 25.016 l 21.666,12.508 z m 151.228,-154.315 21.666,-12.508 21.664,-12.509 v -25.015 -25.017 l -21.664,-12.508 -21.666,-12.508 -21.664,12.508 -21.664,12.508 v 25.017 25.015 l 21.664,12.509 z m -155.442,14.866 26.89,-15.521 26.887,-15.525 v -31.05 -31.046 l -26.887,-15.525 -26.89,-15.524 -26.886,15.524 -26.89,15.525 v 31.046 31.05 l 26.89,15.525 z m -143.372,-40.121 36.996,-21.359 36.995,-21.36 V 118.521 75.804 L 137.167,54.444 100.171,33.086 63.177,54.444 26.182,75.804 v 42.717 42.719 l 36.995,21.359 z"
           style="fill:#1c456e;fill-opacity:1;fill-rule:evenodd;stroke:none"
           id="path22153" /><path
           d="m 442.315,190.701 v -11.52 -25.017 l -21.664,-12.508 -21.666,-12.508 -21.664,12.508 -9.978,5.762 z M 174.162,81.852 V 75.804 L 137.167,54.444 100.171,33.086 63.177,54.444 26.182,75.804 v 42.717 42.719 l 5.236,3.024 36.961,-21.339 z"
           style="fill:#163c63;fill-opacity:1;fill-rule:evenodd;stroke:none"
           id="path22155" /><path
           d="M 238.986,529.688 214.003,515.264 189.02,500.84 v -28.849 -28.849 l 24.983,-14.424 24.983,-14.425 24.985,14.425 24.983,14.424 v 28.849 28.849 l -24.983,14.424 z m 54.782,-98.762 24.984,-14.425 24.983,-14.424 v -28.848 -28.848 l -24.983,-14.425 -24.984,-14.424 -24.982,14.424 -24.984,14.425 v 28.848 28.848 l 24.984,14.424 z m 125.779,-37.808 31.934,-18.435 31.933,-18.439 v -36.873 -36.874 l -31.933,-18.436 -31.934,-18.437 -31.933,18.437 -31.934,18.436 v 36.874 36.874 l 31.934,18.438 z m -146.279,-118.296 15.966,-9.219 15.967,-9.218 v -18.437 -18.437 l -15.967,-9.219 -15.966,-9.218 -15.967,9.218 -15.967,9.219 v 18.437 18.437 l 15.967,9.218 z m -128.421,177.709 42.341,-24.446 42.341,-24.446 v -48.89 -48.891 l -42.341,-24.446 -42.341,-24.445 -42.34,24.445 -42.341,24.446 v 48.891 48.89 l 42.341,24.446 z"
           style="fill:#457db5;fill-opacity:1;fill-rule:evenodd;stroke:none"
           id="path22157" /><path
           d="m 288.322,501.204 -23.711,-13.69 v -33.356 -25.07 l 24.343,14.054 v 28.849 28.849 z m 2.764,-184.123 -22.3,12.875 -24.984,14.425 v 28.848 8.015 l 3.955,2.284 21.665,-12.507 21.664,-12.509 v -25.015 z m 2.682,113.845 24.984,-14.425 24.983,-14.424 v -2.301 l -21.352,-12.327 -28.886,16.677 -23.074,13.322 z m 1.882,-216.929 -6.416,-3.705 -15.966,-9.218 -15.967,9.218 -15.967,9.219 v 18.437 4.857 l 2.209,1.274 26.89,-15.521 z m -198.123,70.29 -37.361,21.571 v 48.891 48.89 l 42.341,24.446 40.244,23.235 37.362,-21.57 v -48.892 -48.89 l -42.34,-24.445 z m 132.002,88.718 v -18.256 -48.891 l -10.28,-5.936 -14.822,8.557 v 25.018 25.016 l 21.666,12.508 z"
           style="fill:#508dc9;fill-opacity:1;fill-rule:evenodd;stroke:none"
           id="path22159" /><path
           d="m 419.547,378.514 25.61,-14.785 25.611,-14.786 v -29.572 -29.572 l -25.611,-14.785 -25.61,-14.786 -25.609,14.786 -25.611,14.785 v 29.572 29.572 l 25.611,14.786 z m -125.778,40.986 20.036,-11.567 20.036,-11.568 v -23.136 -23.136 l -20.036,-11.567 -20.036,-11.568 -20.037,11.568 -20.036,11.567 v 23.136 23.136 l 20.036,11.568 z m -54.782,98.762 -20.036,-11.568 -20.037,-11.567 v -23.136 -23.135 l 20.037,-11.568 20.036,-11.568 20.036,11.568 20.035,11.568 v 23.135 23.136 l -20.035,11.567 z m -94.138,-85.096 33.955,-19.603 33.956,-19.606 V 354.749 315.54 l -33.956,-19.605 -33.955,-19.604 -33.958,19.604 -33.955,19.605 v 39.209 39.208 l 33.955,19.606 z m 128.419,-165.646 12.804,-7.394 12.806,-7.392 v -14.786 -14.786 l -12.806,-7.392 -12.804,-7.394 -12.805,7.394 -12.805,7.392 v 14.786 14.786 l 12.805,7.392 z"
           style="fill:#2f69a3;fill-opacity:1;fill-rule:evenodd;stroke:none"
           id="path22161" /><path
           d="m 180.113,412.807 v -31.949 -48.89 l -42.34,-24.445 -23.476,-13.553 -3.406,1.965 -33.955,19.605 v 39.209 39.208 l 33.955,19.606 33.958,19.603 33.955,-19.603 z m 84.498,27.707 v 13.644 33.356 l 13.817,7.977 0.63,-0.364 v -23.136 -23.135 z m 69.23,-46.449 -11.458,-6.616 -28.886,16.677 -13.178,7.608 13.45,7.766 20.036,-11.567 20.036,-11.568 z M 204.427,310.729 v 22.768 25.016 l 8.333,4.809 v -8.573 -39.209 z m 49.269,69.37 15.726,-9.078 21.664,-12.509 v -25.015 -4.991 l -17.354,10.02 -20.036,11.567 v 23.136 z m 35.63,-162.451 -3.254,-1.878 -12.804,-7.394 -12.805,7.394 -12.805,7.392 v 14.786 3.757 l 22.775,-13.147 z"
           style="fill:#3b77b3;fill-opacity:1;fill-rule:evenodd;stroke:none"
           id="path22163" /><path
           d="m 179.485,388.745 30.519,-17.619 30.52,-17.622 v -35.241 -35.24 l -30.52,-17.62 -30.519,-17.622 -30.52,17.622 -30.519,17.62 v 35.24 35.241 l 30.519,17.622 z"
           style="fill:#accff2;fill-opacity:1;fill-rule:evenodd;stroke:none"
           id="path22165" /><path
           d="m 179.485,388.745 30.519,-17.619 19.525,-11.273 v -5.104 -48.891 l -42.341,-24.446 -32.976,-19.038 -5.247,3.029 -30.519,17.62 v 35.24 35.241 l 30.519,17.622 z"
           style="fill:#d3e8fc;fill-opacity:1;fill-rule:evenodd;stroke:none"
           id="path22167" /><path
           d="m 179.485,374.788 24.475,-14.131 24.476,-14.132 v -28.262 -28.261 l -24.476,-14.13 -24.475,-14.132 -24.474,14.132 -24.476,14.13 v 28.261 28.262 l 24.476,14.132 z"
           style="fill:#5c94cc;fill-opacity:1;fill-rule:evenodd;stroke:none"
           id="path22169" /><path
           d="m 179.485,374.788 24.475,-14.131 24.476,-14.132 v -28.262 -13.036 l -41.248,-23.815 -20.887,-12.06 -11.29,6.52 -24.476,14.13 v 28.261 28.262 l 24.476,14.132 z"
           style="fill:#86b8eb;fill-opacity:1;fill-rule:evenodd;stroke:none"
           id="path22171" /><path
           d="m 179.485,374.788 0.628,-0.363 v -42.457 l -42.34,-24.445 -7.238,-4.179 v 14.919 28.262 l 24.476,14.132 z"
           style="fill:#96c4f2;fill-opacity:1;fill-rule:evenodd;stroke:none"
           id="path22173" /><path
           d="m 522.13,536.307 17.79,-10.272 17.791,-10.271 v -20.543 -20.542 l -17.791,-10.272 -17.79,-10.271 -17.791,10.271 -17.79,10.272 v 20.542 20.543 l 17.79,10.271 z"
           style="fill:#163c63;fill-opacity:1;fill-rule:evenodd;stroke:none"
           id="path22175" /><path
           d="m 527.742,180.416 10.566,-6.099 10.565,-6.1 v -12.199 -12.202 l -10.565,-6.1 -10.566,-6.099 -10.566,6.099 -10.566,6.1 v 12.202 12.199 l 10.566,6.1 z"
           style="fill:#1c456e;fill-opacity:1;fill-rule:evenodd;stroke:none"
           id="path22177" /><path
           d="m 340.81,85.223 10.566,-6.102 10.565,-6.098 V 60.821 48.623 l -10.565,-6.102 -10.566,-6.1 -10.566,6.1 -10.565,6.102 v 12.198 12.202 l 10.565,6.098 z"
           style="fill:#1c456e;fill-opacity:1;fill-rule:evenodd;stroke:none"
           id="path22179" /><path
           d="m 505.151,526.504 v -62.566 l -0.812,0.469 -17.79,10.272 v 20.542 20.543 l 17.79,10.271 z"
           style="fill:#1c456e;fill-opacity:1;fill-rule:evenodd;stroke:none"
           id="path22181" /><path
           d="m 281.698,247.49 38.159,-22.031 38.16,-22.031 v -44.062 -44.061 l -38.16,-22.033 -38.159,-22.03 -38.159,22.03 -38.159,22.033 v 44.061 44.062 l 38.159,22.031 z"
           style="fill:#accff2;fill-opacity:1;fill-rule:evenodd;stroke:none"
           id="path22183" /><path
           d="m 109.251,260.759 26.865,-15.512 26.864,-15.509 v -31.022 -31.022 l -26.864,-15.508 -26.865,-15.51 -26.864,15.51 -26.866,15.508 v 31.022 31.022 l 26.866,15.509 z"
           style="fill:#accff2;fill-opacity:1;fill-rule:evenodd;stroke:none"
           id="path22185" /><path
           d="m 281.698,247.49 23.503,-13.569 v -14.41 l -15.967,-9.219 -15.966,-9.218 -15.967,9.218 -15.967,9.219 v 4.677 l 2.205,1.271 z"
           style="fill:#d3e8fc;fill-opacity:1;fill-rule:evenodd;stroke:none"
           id="path22187" /><path
           d="m 281.698,230.039 30.603,-17.668 30.602,-17.669 v -35.336 -35.337 l -30.602,-17.667 -30.603,-17.669 -30.602,17.67 -30.602,17.666 v 35.337 35.336 l 30.602,17.669 z"
           style="fill:#5c94cc;fill-opacity:1;fill-rule:evenodd;stroke:none"
           id="path22189" /><path
           d="m 281.698,230.039 20.869,-12.048 -13.333,-7.699 -15.966,-9.218 -15.967,9.218 -4.901,2.831 z"
           style="fill:#86b8eb;fill-opacity:1;fill-rule:evenodd;stroke:none"
           id="path22191" /><path
           d="m 281.698,230.039 14.546,-8.397 -10.172,-5.872 -12.804,-7.394 -12.805,7.394 -1.74,1.004 z"
           style="fill:#77abe0;fill-opacity:1;fill-rule:evenodd;stroke:none"
           id="path22193" /><path
           d="m 109.251,248.473 21.545,-12.44 21.545,-12.438 V 198.716 173.838 L 130.796,161.4 109.251,148.96 87.706,161.4 66.161,173.838 v 24.878 24.879 l 21.545,12.438 z"
           style="fill:#5c94cc;fill-opacity:1;fill-rule:evenodd;stroke:none"
           id="path22195" /><path
           d="m 41.647,579.324 10.567,-6.101 10.565,-6.099 v -12.201 -12.2 l -10.565,-6.1 -10.567,-6.101 -10.564,6.101 -10.566,6.1 v 12.2 12.201 l 10.566,6.099 z"
           style="fill:#1c456e;fill-opacity:1;fill-rule:evenodd;stroke:none"
           id="path22197" /><path
           d="m 405.623,566.688 10.566,-6.101 10.565,-6.101 v -12.199 -12.201 l -10.565,-6.1 -10.566,-6.1 -10.565,6.1 -10.567,6.1 v 12.201 12.199 l 10.567,6.101 z"
           style="fill:#1c456e;fill-opacity:1;fill-rule:evenodd;stroke:none"
           id="path22199" /><path
           d="M 268.542,602.006 V 582 l -21.59,-12.464 -21.59,-12.466 -21.588,12.466 -21.59,12.464 v 20.006 z"
           style="fill:#1c456e;fill-opacity:1;fill-rule:evenodd;stroke:none"
           id="path22201" /></g></g></g></svg>
